<?xml version="1.0" encoding="UTF-8" standalone="no"?>
<svg
   xmlns:dc="http://purl.org/dc/elements/1.1/"
   xmlns:cc="http://creativecommons.org/ns#"
   xmlns:rdf="http://www.w3.org/1999/02/22-rdf-syntax-ns#"
   xmlns:svg="http://www.w3.org/2000/svg"
   xmlns="http://www.w3.org/2000/svg"
   xmlns:xlink="http://www.w3.org/1999/xlink"
   height="360"
   width="360"
   xml:space="preserve"
   enable-background="new 0 0 352 360"
   viewBox="0 0 360 360"
   y="0px"
   x="0px"
   id="Layer_1"
   version="1.1"><metadata
     id="metadata4175"><rdf:RDF><cc:Work
         rdf:about=""><dc:format>image/svg+xml</dc:format><dc:type
           rdf:resource="http://purl.org/dc/dcmitype/StillImage" /><dc:title></dc:title></cc:Work></rdf:RDF></metadata><defs
     id="defs4173" /><g
     id="g4340-6-4"
     transform="translate(486.07031,-1210.0153)"><path
       style="opacity:1;fill:#ffffff;fill-opacity:1;stroke:#800000;stroke-width:11.30000019;stroke-linecap:round;stroke-linejoin:miter;stroke-miterlimit:4;stroke-dasharray:none;stroke-dashoffset:0;stroke-opacity:1"
       d="m -306.03616,1250.7759 120.69059,64.6634 -3.79714,137.802 -119.08003,68.7509 -122.77132,-70.8821 0,-126.9267 z"
       id="path4287-5-4-5" /><path
       style="opacity:1;fill:none;fill-opacity:1;stroke:#800000;stroke-width:11.30000019;stroke-linecap:round;stroke-linejoin:miter;stroke-miterlimit:4;stroke-dasharray:none;stroke-dashoffset:0;stroke-opacity:1"
       d="m -424.43546,1319.4474 233.14298,134.6052"
       id="path4285-6-0-0" /><circle
       style="opacity:1;fill:#ffffff;fill-opacity:0.94117647;stroke:#800000;stroke-width:11.30000019;stroke-linecap:round;stroke-linejoin:miter;stroke-miterlimit:4;stroke-dasharray:none;stroke-dashoffset:0;stroke-opacity:1"
       id="path4204-2-5-8-9"
       cx="-307.07031"
       cy="1251.0153"
       r="21.687956" /><use
       x="0"
       y="0"
       xlink:href="#path4204-2-5-8-9"
       id="use4206-9-6-2-3"
       transform="translate(122,65.999991)"
       width="100%"
       height="100%" /><use
       x="0"
       y="0"
       xlink:href="#use4206-9-6-2-3"
       id="use4208-6-3-7-8"
       transform="translate(-242,-8.9827806e-6)"
       width="100%"
       height="100%" /><use
       x="0"
       y="0"
       xlink:href="#path4204-2-5-8-9"
       id="use4210-5-2-1-1"
       transform="translate(-4.5712438e-6,278)"
       width="100%"
       height="100%" /><use
       x="0"
       y="0"
       xlink:href="#use4206-9-6-2-3"
       id="use4212-9-4-6-4"
       transform="translate(-4.5712438e-6,142)"
       width="100%"
       height="100%" /><use
       x="0"
       y="0"
       xlink:href="#use4208-6-3-7-8"
       id="use4214-7-7-1-8"
       transform="translate(-4.5712438e-6,142)"
       width="100%"
       height="100%" /></g><path
     display="none"
     d="m 183.704,59.992 c 73.367,0.829 128.796,58.637 131.123,126.902 1.296,38.031 -12.41,71.041 -39.324,97.842 -25.187,25.082 -56.522,38.029 -91.796,37.91 -39.767,-0.135 -73.545,-16.03 -99.761,-46.303 -21.157,-24.43 -31.86,-53.477 -31.649,-85.523 0.231,-35.021 13.06,-65.892 37.664,-91.101 25.956,-26.596 59.004,-39.486 93.743,-39.727 z m -0.226,248.035 c 62.857,1.352 121.871,-52.404 117.584,-125.304 -3.43,-58.319 -51.48,-107.467 -112.597,-109.812 -69.882,-2.682 -119.809,52.473 -122.59,110.812 -3.447,72.322 54.128,125.376 117.603,124.304 z"
     id="path4143"
     style="display:none;fill:#fafbf7" /><path
     display="none"
     d="M 183.478,308.027 C 120.003,309.098 62.428,256.044 65.875,183.723 68.656,125.384 118.582,70.23 188.465,72.911 c 61.116,2.345 109.167,51.493 112.597,109.812 4.287,72.9 -54.727,126.657 -117.584,125.304 z m -51.501,-71.013 c 0.868,-1.736 1.705,-3.488 2.612,-5.204 2.247,-4.253 1.157,-8.269 -2.981,-10.86 -8.68,-5.434 -16.039,-2.603 -18.347,7.251 -0.692,2.956 -0.262,5.764 2.482,8.053 6.501,5.424 10.045,5.692 16.317,0.668 0.076,0.319 0.227,0.64 0.216,0.955 -0.276,7.682 2.308,11.482 10.123,13.669 6.051,1.693 7.692,-3.375 10.108,-7.259 1.606,-2.583 3.674,-4.88 5.536,-7.305 -1.82,3.302 -3.599,6.626 -5.47,9.899 -1.939,3.392 -3.607,7.01 -0.499,10.341 7.084,7.592 13.21,7.043 18.904,-1.326 0.257,-0.378 0.693,-0.633 1.046,-0.945 -0.241,1.081 -0.299,2.247 -0.753,3.23 0,0 -0.563,1 6.707,5.068 1.011,0.565 3.066,-1.081 4.068,-0.5 3.721,2.158 1.878,3.228 3.919,0 4.053,-6.408 9.537,-5.109 12.877,-11.906 2.442,-4.97 1.826,-8.117 -2.052,-11.51 -3.977,-3.48 -9.81,-3.684 -14.823,-0.272 0.727,-4.787 2.382,-9.494 -2.691,-13.428 -5.358,-4.155 -11.541,-3.592 -15.047,2.022 -1.993,3.191 -4.165,6.269 -6.257,9.398 0.504,-1.67 1.244,-3.311 1.455,-5.017 0.3,-2.417 0.992,-5.203 0.144,-7.267 -2.722,-6.624 -13.664,-8.749 -17.146,-3.512 -2.709,4.075 -4.886,8.499 -7.449,12.677 -0.731,1.192 -1.985,2.063 -2.999,3.08 z m 94.021,-17.011 c 4.87,2.605 9.675,5.342 14.628,7.778 4.592,2.259 7.747,1.331 10.435,-3.127 1.319,-2.187 2.12,-4.723 2.914,-7.179 1.11,-3.434 -0.086,-5.815 -3.343,-7.614 -4.987,-2.754 -9.761,-5.893 -14.626,-8.869 0,0 -0.062,0.053 -0.062,0.053 5.196,2.358 10.371,4.768 15.596,7.06 4.738,2.079 8.431,1.33 10.385,-2.093 0.972,-1.703 1.733,-3.535 2.502,-5.345 1.942,-4.569 1.063,-7.831 -3.073,-10.506 -2.626,-1.698 -5.479,-3.04 -8.197,-4.6 -16.418,-9.425 -32.876,-18.78 -49.21,-28.347 -6.026,-3.529 -12.008,-1.641 -13.873,5.054 -1.549,5.561 -2.79,11.209 -4.099,16.835 -2.097,9.011 -4.794,11.158 -13.903,9.773 -3.996,-0.608 -7.974,-2.036 -11.67,-3.727 -4.648,-2.126 -6.156,-6.18 -4.927,-11.199 1.096,-4.474 2.667,-8.891 3.212,-13.431 1.407,-11.724 5.164,-21.725 16.576,-27.413 2.536,-1.264 2.015,-3.696 -0.803,-3.934 -3.775,-0.319 -8.21,-0.897 -11.336,0.675 -9.41,4.732 -18.346,10.412 -27.417,15.807 -3.601,2.142 -7.138,2.918 -11.37,1.716 -12.059,-3.426 -24.214,-6.511 -36.331,-9.734 -3.944,-1.049 -7.204,-1.025 -8.378,4.036 -0.588,2.534 -1.924,4.897 -2.933,7.332 -4.917,11.864 -7.383,24.278 -7.602,37.057 -0.122,7.104 0.469,14.24 1.155,21.322 0.134,1.387 1.961,3.339 3.382,3.759 11.389,3.364 22.837,6.541 34.339,9.499 3.346,0.861 6.668,0.914 9.091,-2.927 0.987,-1.564 3.9,-2.507 6.009,-2.648 4.66,-0.311 8.711,1.438 11.747,5.23 1.984,2.479 3.595,3.331 5.906,-0.219 3.016,-4.633 7.007,-5.586 12.164,-3.457 2.371,0.979 4.596,2.592 6.504,4.337 2.284,2.09 3.864,3.593 6.925,0.688 1.474,-1.399 5.152,-2.221 6.801,-1.351 4.226,2.229 8.736,4.916 11.485,8.637 2.241,3.034 3.844,4.794 7.764,5.374 8.963,1.326 13.094,10.422 8.85,18.189 -0.467,0.855 -0.726,2.814 -0.523,2.897 2.734,1.119 5.777,3.158 8.333,2.696 5.624,-1.017 7.086,-6.28 8.338,-11.098 1.016,-3.911 -1.585,-6.014 -4.484,-7.852 -0.369,-0.234 -0.528,-0.8 -0.785,-1.212 l -0.074,0.08 c 3.945,1.976 7.901,3.932 11.833,5.934 5.614,2.857 10.578,1.339 13.694,-4.225 2.922,-5.217 1.462,-10.611 -3.45,-13.732 -2.824,-1.795 -5.398,-3.984 -8.084,-5.996 l -0.015,0.017 z m 72.18,-30.724 c -0.56,-5.218 -0.542,-11.798 -2.093,-17.985 -2.595,-10.354 -6.193,-20.457 -9.364,-30.667 -1.076,-3.465 -3.724,-4.138 -6.726,-3.351 -10.541,2.763 -21.095,5.511 -31.523,8.663 -4.302,1.3 -7.822,0.992 -11.729,-1.295 -11.244,-6.583 -22.655,-12.885 -34.082,-19.148 -4.802,-2.632 -9.64,-2.754 -14.285,0.746 -6.183,4.659 -12.688,8.924 -18.589,13.91 -2.495,2.108 -4.547,5.391 -5.508,8.534 -2.403,7.864 -4.222,15.92 -5.931,23.973 -0.491,2.311 -0.448,5.146 0.465,7.259 1.912,4.431 11.242,7.791 17.118,6.896 5.756,-0.876 4.082,-5.313 8.038,-9.884 3.864,-4.465 2.435,-11.68 4.763,-17.04 3.179,-7.318 8.388,-8.592 15.174,-4.832 0.289,0.16 0.607,0.269 0.893,0.433 19.686,11.291 39.327,22.662 59.1,33.797 3.079,1.734 4.05,3.907 4.125,7.119 0.162,6.899 -3.383,11.59 -8.877,15.033 -3.469,2.175 -1.705,5.322 -1.628,8.062 0.008,0.292 3.378,1.052 4.946,0.65 10.063,-2.582 20.007,-5.637 30.104,-8.066 3.232,-0.777 4.029,-2.758 4.294,-5.204 0.588,-5.436 0.838,-10.908 1.315,-17.603 z"
     id="path4145"
     style="display:none;fill:#8dbc57" /><path
     d="m 209.04293,130.37132 c 0.5476,3.08904 -3.72809,3.82812 -5.79152,2.99961 -4.71048,-1.89137 -5.26851,-8.06192 -2.90661,-11.96387 3.79819,-6.27473 12.5012,-6.81093 18.13621,-2.8136 7.87837,5.58872 8.38413,16.97733 2.7206,24.30856 -7.34052,9.50202 -21.4686,9.97189 -30.4809,2.62759 -11.13629,-9.07519 -11.56763,-25.96773 -2.53459,-36.65324 10.80085,-12.776728 30.4715,-13.168153 42.82559,-2.44159 14.42104,12.52122 14.77176,34.97826 2.34858,48.99793 -14.2382,16.06794 -39.48707,16.37749 -55.17027,2.25558 -17.71664,-15.95291 -17.98472,-43.99734 -2.16258,-61.342618 17.66601,-19.366652 48.50869,-19.593039 67.51496,-2.069573 15.87796,14.639221 20.48928,38.361661 12.08841,58.123051"
     id="path4289-5-1-3"
     style="fill:#808080;fill-opacity:1;fill-rule:evenodd;stroke:#800000;stroke-width:5.32724714;stroke-linecap:butt;stroke-linejoin:miter;stroke-miterlimit:4;stroke-dasharray:none;stroke-opacity:0.99215686" /><text
     transform="matrix(0.8530206,0.52187725,-0.52187725,0.8530206,0,0)"
     id="text4397-5"
     y="152.39978"
     x="247.64685"
     style="font-style:normal;font-variant:normal;font-weight:bold;font-stretch:normal;font-size:109.20624542px;line-height:125%;font-family:Sans;-inkscape-font-specification:'Sans, Bold';text-align:center;letter-spacing:0px;word-spacing:0px;writing-mode:lr-tb;text-anchor:middle;fill:#808080;fill-opacity:1;stroke:#800000;stroke-width:4.60000086;stroke-linecap:butt;stroke-linejoin:miter;stroke-miterlimit:4;stroke-dasharray:none;stroke-opacity:0.99607843"
     xml:space="preserve"><tspan
       y="152.39978"
       x="247.64685"
       id="tspan4399-3">R</tspan></text>
</svg>